<?xml version="1.0" encoding="UTF-8"?>
<svg id="Layer_1" data-name="Layer 1" xmlns="http://www.w3.org/2000/svg" viewBox="-53.50 -59.24 297.20 297.20">
  <defs>
    <style>
      .cls-1 {
        fill: #d4af37;
        fill-rule: evenodd;
      }
    </style>
  </defs>
  <path class="cls-1" d="M22.6,96.63l12.3-3.38c7.25-1.99,12.59-7.6,14.23-15.4l2.83-13.48-8.97,2.28c-7.48,1.9-15.68,7.94-19.17,15.75.06-8.24-8.58-15.68-15.47-18.82l-8.37-3.81.17,13.75c.1,7.95,4.26,14.4,11,17.63l11.43,5.48ZM48.43,122.43c6.07-4.26,9.02-11.29,7.71-19.15l-2.27-13.58-7.57,5.1c-6.32,4.25-11.8,12.63-12.21,21.11-2.95-7.75-13.77-11.86-21.38-12.53l-9.24-.8,5.19,12.84c3,7.42,9.26,12.09,16.76,12.89l12.72,1.35,10.3-7.24ZM29.24,35.51l-.98-12.18c-.58-7.18,3.09-13.57,10.22-17.15L50.81,0l.9,8.83c.77,7.55-.88,14.99-8.53,19.13l-13.93,7.54ZM165.15,64.03l-12.52-2.56c-7.37-1.51-13.11-6.76-15.31-14.43l-3.8-13.26,9.11,1.68c7.6,1.4,16.21,6.89,20.26,14.46-.66-8.22,7.42-16.21,14.06-19.79l8.07-4.35.83,13.73c.48,7.94-3.21,14.65-9.7,18.31l-11.01,6.22ZM167.61,96.63l-12.3-3.38c-7.25-1.99-12.59-7.6-14.23-15.4l-2.83-13.48,8.96,2.28c7.48,1.9,15.68,7.94,19.17,15.75-.06-8.24,8.58-15.68,15.47-18.82l8.37-3.81-.17,13.75c-.1,7.95-4.26,14.4-11,17.63l-11.43,5.48ZM141.78,122.43c-6.07-4.26-9.02-11.29-7.71-19.15l2.27-13.58,7.57,5.1c6.32,4.25,11.8,12.63,12.21,21.11,2.95-7.75,13.77-11.86,21.38-12.53l9.24-.8-5.18,12.84c-3,7.42-9.26,12.09-16.76,12.89l-12.72,1.35-10.3-7.24ZM79.87,178.72l-3.84-4.78-4.3-5.35c5.29-5.77,11.01-10.18,16.8-13.77-2.92-1.95-5.91-3.44-8.84-4.22-5.18-1.38-10.66-1.13-15.86,1.04l-2.35.98c-6.91,2.88-14.79,1.82-21.29-3.17l-11.24-8.64,8.42-3.71c6.93-3.05,18.46-4.64,25.1.65-4.1-7.54-3.77-17.4-.54-24.09l3.87-8.02,9.11,10.67c5.27,6.17,6.41,13.66,3.4,20.24l-2.49,5.44c5.93,2.78,12.55,5.51,19.28,9.06,6.72-3.55,13.34-6.29,19.28-9.06l-2.49-5.44c-3.01-6.58-1.87-14.08,3.4-20.24l9.11-10.67,3.87,8.02c3.23,6.69,3.56,16.55-.54,24.09,6.64-5.29,18.16-3.7,25.1-.65l8.42,3.71-11.24,8.64c-6.5,4.99-14.38,6.05-21.29,3.17l-2.35-.98c-5.2-2.17-10.68-2.42-15.86-1.04-2.94.78-5.93,2.27-8.85,4.22,5.79,3.59,11.51,8,16.8,13.77l-4.3,5.35-3.84,4.78c-2.8-5.05-8.5-12.62-15.23-18.72-6.73,6.1-12.44,13.67-15.23,18.72ZM160.97,35.51l.98-12.18c.58-7.18-3.09-13.57-10.22-17.15l-12.33-6.18-.9,8.83c-.77,7.55.88,14.99,8.53,19.13l13.93,7.54ZM25.06,64.03l12.52-2.56c7.37-1.51,13.11-6.76,15.31-14.43l3.8-13.26-9.11,1.68c-7.6,1.4-16.21,6.89-20.26,14.46.66-8.22-7.42-16.21-14.06-19.79l-8.07-4.35-.83,13.73c-.48,7.94,3.21,14.65,9.7,18.31l11.01,6.22Z"/>
</svg>